<svg width="30" height="30" viewBox="0 0 30 30" fill="none" xmlns="http://www.w3.org/2000/svg">
<rect width="30" height="30" rx="6" fill="white"/>
<g clip-path="url(#clip0_1_2075)">
<path d="M19.8878 12.0216H18.3017C18.1169 12.0216 17.9411 11.9423 17.8188 11.8042L17.1753 11.0774C17.0796 10.9689 16.9415 10.9072 16.7971 10.9072C16.6528 10.9072 16.5147 10.9693 16.4189 11.0774L15.8672 11.701C15.6865 11.9049 15.4273 12.0219 15.1549 12.0219H6.4729C6.22563 12.7267 6.0644 13.4711 6.00006 14.2432H14.1962C14.3402 14.2432 14.4782 14.1845 14.5777 14.0805L15.3408 13.2841C15.4362 13.1846 15.5679 13.1285 15.7056 13.1285H15.737C15.8818 13.1285 16.0194 13.1906 16.1152 13.2991L16.7582 14.0259C16.8806 14.1643 17.0564 14.2432 17.2412 14.2432H23.9312C23.8669 13.4708 23.7057 12.7263 23.4584 12.0219H19.8874L19.8878 12.0216Z" fill="black"/>
<path d="M10.9596 18.9144C11.1036 18.9144 11.2417 18.8556 11.3412 18.7517L12.1043 17.9552C12.1997 17.8557 12.3314 17.7996 12.469 17.7996H12.5005C12.6452 17.7996 12.7829 17.8617 12.8786 17.9698L13.5217 18.6967C13.644 18.8351 13.8198 18.914 14.0046 18.914H23.0708C23.4105 18.2122 23.6593 17.4592 23.8074 16.6703H15.1052C14.9204 16.6703 14.7446 16.591 14.6222 16.4529L13.9792 15.7261C13.8834 15.6176 13.7454 15.5559 13.601 15.5559C13.4566 15.5559 13.3186 15.618 13.2228 15.7261L12.671 16.3497C12.4904 16.5536 12.2311 16.6706 11.9584 16.6706H6.1235C6.27164 17.4596 6.52078 18.2126 6.86007 18.9144H10.9596Z" fill="black"/>
<path d="M17.3915 9.59416C17.5355 9.59416 17.6736 9.53543 17.7731 9.43144L18.5362 8.63502C18.6316 8.53552 18.7633 8.4794 18.9009 8.4794H18.9324C19.0771 8.4794 19.2148 8.5415 19.3105 8.64999L19.9536 9.37682C20.0759 9.51523 20.2517 9.59416 20.4365 9.59416H22.1607C20.5188 7.41178 17.9074 6 14.9656 6C12.0238 6 9.41238 7.41178 7.77054 9.59416H17.3915Z" fill="black"/>
<path d="M13.9287 21.1379H11.5709C11.3861 21.1379 11.2103 21.0586 11.0879 20.9206L10.4449 20.1937C10.3491 20.0852 10.2111 20.0235 10.0667 20.0235C9.9223 20.0235 9.78427 20.0856 9.6885 20.1937L9.13673 20.8173C8.95605 21.0212 8.69682 21.1383 8.42411 21.1383H8.38745C10.03 22.8983 12.3692 24 14.9664 24C17.5636 24 19.9024 22.8983 21.5454 21.1383H13.9287V21.1379Z" fill="black"/>
</g>
<defs>
<clipPath id="clip0_1_2075">
<rect width="18" height="18" fill="white" transform="translate(6 6)"/>
</clipPath>
</defs>
</svg>
