<svg width="30" height="30" viewBox="0 0 30 30" fill="none" xmlns="http://www.w3.org/2000/svg">
<rect width="30" height="30" rx="6" fill="white"/>
<g clip-path="url(#clip0_1_2048)">
<path d="M14.9135 7.11737C14.9576 7.11737 14.9983 7.12851 15.039 7.15035L21.64 10.9894C21.7175 11.0335 21.7655 11.1149 21.7616 11.2031L21.7359 18.8406C21.7359 18.9292 21.688 19.0102 21.6104 19.0543L14.9872 22.8488C14.9503 22.8711 14.9062 22.8818 14.8617 22.8818C14.8171 22.8818 14.7769 22.8706 14.7362 22.8488L8.1356 19.0102C8.05808 18.966 8.01012 18.8847 8.01397 18.7964L8.03967 11.159C8.03967 11.0704 8.08763 10.9894 8.16515 10.9453L14.7919 7.14692C14.8287 7.12851 14.8728 7.11737 14.9135 7.11737ZM14.9173 6C14.6814 6 14.4454 6.0591 14.2351 6.18073L7.61182 9.97526C7.18783 10.2189 6.92572 10.6686 6.92572 11.1556L6.90002 18.793C6.90002 19.28 7.15827 19.7297 7.57841 19.9768L14.1794 23.8158C14.3897 23.9375 14.6257 24.0004 14.8617 24.0004C15.0976 24.0004 15.3336 23.9413 15.5439 23.8197L22.1672 20.0252C22.5912 19.7819 22.8533 19.3318 22.8533 18.8453L22.879 11.2078C22.879 10.7209 22.6207 10.2712 22.2006 10.0241L15.5996 6.18459C15.3893 6.06296 15.1533 6 14.9173 6Z" fill="black"/>
<path d="M16.2556 10.1633H15.2894C15.2157 10.1633 15.1528 10.2074 15.1271 10.2776L12.0148 18.8072C11.9925 18.8624 12.0371 18.9215 12.0957 18.9215H13.0619C13.1356 18.9215 13.1985 18.8774 13.2242 18.8072L16.3365 10.2776C16.3588 10.2224 16.3142 10.1633 16.2556 10.1633ZM14.563 10.1633H13.5968C13.5232 10.1633 13.4602 10.2074 13.4345 10.2776L10.3257 18.8037C10.3034 18.859 10.3479 18.9181 10.4066 18.9181H11.3728C11.4465 18.9181 11.5094 18.874 11.5351 18.8037L14.644 10.2776C14.6662 10.2224 14.6256 10.1633 14.563 10.1633ZM15.817 13.4674C15.7913 13.3899 15.6804 13.3899 15.6547 13.4674L15.1532 14.8465C15.1386 14.8833 15.1386 14.9274 15.1532 14.9647L16.5545 18.8037C16.5802 18.8701 16.6432 18.9181 16.7168 18.9181H17.683C17.7421 18.9181 17.7862 18.859 17.764 18.8037L15.817 13.4674ZM19.4531 18.8037L16.6616 11.1479C16.6359 11.0704 16.525 11.0704 16.4993 11.1479L15.9977 12.5269C15.9832 12.5638 15.9832 12.6079 15.9977 12.6451L18.2436 18.8037C18.2693 18.8701 18.3323 18.9181 18.4059 18.9181H19.3721C19.4347 18.9219 19.4753 18.859 19.4531 18.8037Z" fill="black"/>
</g>
<defs>
<clipPath id="clip0_1_2048">
<rect width="18" height="18" fill="white" transform="translate(6 6)"/>
</clipPath>
</defs>
</svg>
