<svg width="30" height="30" viewBox="0 0 30 30" fill="none" xmlns="http://www.w3.org/2000/svg">
<rect width="30" height="30" rx="6" fill="white"/>
<path d="M14.9998 7.3751C15.762 7.3751 16.4475 7.79865 16.7886 8.48049L22.4134 19.7306C22.7256 20.3554 22.693 21.0825 22.3261 21.6766C21.9589 22.2707 21.3232 22.6253 20.6246 22.6253H9.37498C8.67683 22.6253 8.0407 22.2707 7.67387 21.6766C7.30664 21.0825 7.27399 20.3554 7.58655 19.7306L13.211 8.48049C13.5521 7.79865 14.2376 7.3751 14.9998 7.3751ZM14.9998 6C13.7214 6 12.5528 6.72224 11.9811 7.86557L6.35632 19.1157C5.83321 20.1619 5.88911 21.4044 6.50403 22.3992C7.11894 23.3941 8.20514 24 9.37498 24H20.625C21.7949 24 22.8811 23.3945 23.496 22.3992C24.1109 21.4044 24.1668 20.1619 23.6437 19.1157L18.0185 7.86557C17.4468 6.72224 16.2782 6 14.9998 6Z" fill="black"/>
</svg>
