<svg width="30" height="30" viewBox="0 0 30 30" fill="none" xmlns="http://www.w3.org/2000/svg">
<rect width="30" height="30" rx="6" fill="white"/>
<path fill-rule="evenodd" clip-rule="evenodd" d="M15.8446 6.73131C15.3556 5.88666 14.5777 5.88666 14.0887 6.73131L5.20871 22.3685C4.7197 23.2242 5.1198 23.9022 6.09781 23.9022H10.5545C11.4547 23.8466 12.266 23.3687 12.755 22.613L18.123 13.3107C18.512 12.5105 18.512 11.5658 18.123 10.7656L16.5226 7.95383L15.8446 6.73131ZM21.7461 17.0227C21.2571 16.1781 20.468 16.1781 19.979 17.0227L16.8783 22.3685C16.4004 23.2131 16.8005 23.9022 17.7674 23.9022H23.9022C24.8802 23.9022 25.2803 23.2131 24.7913 22.3685L21.7461 17.0227Z" fill="black"/>
</svg>
