<svg width="30" height="30" viewBox="0 0 30 30" fill="none" xmlns="http://www.w3.org/2000/svg">
<rect width="30" height="30" rx="6" fill="white"/>
<path fill-rule="evenodd" clip-rule="evenodd" d="M16.472 6.38867L15.8451 8.89941C16.2634 8.99489 16.6847 9.09123 17.0941 9.19336L17.7162 6.69922L19.2758 7.08789L18.6371 9.65039C20.6061 10.3286 22.0456 11.3451 21.7631 13.2363C21.5582 14.6205 20.7907 15.2905 19.7719 15.5264C21.1709 16.2552 21.8826 17.3722 21.2045 19.3086C20.3637 21.7132 18.3637 21.9163 15.7045 21.4131L15.059 24L13.4994 23.6113L14.1361 21.0596C13.732 20.9592 13.3189 20.8527 12.8939 20.7373L12.2543 23.3008L10.6967 22.9121L11.3422 20.3203C10.9784 20.2271 10.6083 20.1278 10.2308 20.0332L8.20154 19.5273L8.97498 17.7422C8.97498 17.7422 10.1243 18.0471 10.1088 18.0244C10.5503 18.1337 10.7463 17.8462 10.8236 17.6543L11.8441 13.5664L12.0082 13.6064C11.946 13.5816 11.8896 13.5658 11.8461 13.5547L12.5736 10.6367C12.5932 10.3054 12.4785 9.88719 11.847 9.72949C11.8689 9.71262 10.7227 9.45018 10.7142 9.44824L11.1293 7.78223L13.2797 8.31934L13.2777 8.32715C13.6011 8.40754 13.9345 8.48424 14.2738 8.56152L14.9135 6L16.472 6.38867ZM13.3998 18.8594C14.4243 19.1141 17.516 20.1041 18.1469 18.4053L18.2006 18.2324C18.7029 16.2129 15.3133 15.6906 14.2562 15.4268L13.3998 18.8594ZM14.6478 13.8555C15.5287 14.0749 18.2423 14.9695 18.682 13.208C19.1404 11.3706 16.305 10.9606 15.4242 10.7412L14.6478 13.8555Z" fill="black"/>
</svg>
