<svg width="30" height="30" viewBox="0 0 30 30" fill="none" xmlns="http://www.w3.org/2000/svg">
<rect width="30" height="30" rx="6" fill="white"/>
<path d="M10.0881 8.75708L15 6L19.9119 8.75708L18.1061 9.77561L15 8.03708L11.8939 9.77561L10.0881 8.75708ZM19.9119 12.2341L18.1061 11.2156L15 12.9541L11.8939 11.2156L10.0881 12.2341V14.2712L13.1941 16.0098V19.4868L15 20.5054L16.8059 19.4868V16.0098L19.9119 14.2712V12.2341ZM19.9119 17.7483V15.7112L18.1061 16.7298V18.7668L19.9119 17.7483ZM21.1941 18.4683L18.0881 20.2068V22.2439L23 19.4868V13.9727L21.1941 14.9912V18.4683ZM19.3883 10.4956L21.1941 11.5142V13.5512L23 12.5327V10.4956L21.1941 9.47707L19.3883 10.4956ZM13.1941 20.9444V22.9815L15 24L16.8059 22.9815V20.9444L15 21.9629L13.1941 20.9444ZM10.0881 17.7483L11.8939 18.7668V16.7298L10.0881 15.7112V17.7483ZM13.1941 10.4956L15 11.5142L16.8059 10.4956L15 9.47707L13.1941 10.4956ZM8.80586 11.5142L10.6117 10.4956L8.80586 9.47707L7 10.4956V12.5327L8.80586 13.5512V11.5142ZM8.80586 14.9912L7 13.9727V19.4868L11.912 22.2439V20.2068L8.80586 18.4683V14.9912Z" fill="black"/>
</svg>
