<svg width="30" height="30" viewBox="0 0 30 30" fill="none" xmlns="http://www.w3.org/2000/svg">
<rect width="30" height="30" rx="6" fill="white"/>
<g clip-path="url(#clip0_1_2054)">
<path d="M14.9313 27C21.5587 27 26.9313 21.6274 26.9313 15C26.9313 8.37258 21.5587 3 14.9313 3C8.30386 3 2.93127 8.37258 2.93127 15C2.93127 21.6274 8.30386 27 14.9313 27Z" fill="white"/>
<path fill-rule="evenodd" clip-rule="evenodd" d="M16.0441 22.5703C16.4112 20.9689 16.6664 18.7267 16.728 16.1917L17.2903 16.2054C17.2281 18.7648 16.9704 21.0468 16.5924 22.696C16.404 23.5183 16.1823 24.1983 15.9318 24.6794C15.8067 24.9195 15.6674 25.1241 15.5101 25.2719C15.3516 25.4209 15.157 25.5281 14.9311 25.5281C14.6719 25.5281 14.4549 25.3876 14.2836 25.2028C14.1117 25.0172 13.959 24.7596 13.8218 24.4542C13.5464 23.8416 13.3065 22.975 13.1117 21.9316L13.6646 21.8284C13.856 22.8531 14.086 23.6699 14.3348 24.2237C14.4597 24.5015 14.5826 24.6978 14.6962 24.8204C14.8104 24.9437 14.8888 24.9656 14.9311 24.9656C14.9684 24.9656 15.032 24.9493 15.1248 24.8621C15.2187 24.7738 15.3234 24.6297 15.4329 24.4196C15.6513 24.0001 15.8601 23.3733 16.0441 22.5703Z" fill="url(#paint0_linear_1_2054)"/>
<path fill-rule="evenodd" clip-rule="evenodd" d="M13.9943 6.74059C13.6577 7.91774 13.3904 9.59404 13.2438 11.5624L12.6828 11.5206C12.831 9.53151 13.1024 7.81363 13.4535 6.58595C13.6284 5.97421 13.8275 5.4682 14.0506 5.10893C14.2628 4.76722 14.5518 4.47188 14.9312 4.47188C15.157 4.47188 15.3517 4.57911 15.5102 4.72804C15.6675 4.87592 15.8068 5.08048 15.9318 5.32062C16.1824 5.80171 16.404 6.48173 16.5925 7.30403C16.9705 8.95319 17.2282 11.2352 17.2904 13.7946L16.7281 13.8083C16.6664 11.2733 16.4113 9.0311 16.0442 7.4297C15.8602 6.62674 15.6514 5.99988 15.4329 5.58042C15.3235 5.37027 15.2188 5.22615 15.1249 5.1379C15.0321 5.0507 14.9684 5.03438 14.9312 5.03438C14.8655 5.03438 14.7227 5.09289 14.5285 5.40567C14.3452 5.70086 14.1632 6.14992 13.9943 6.74059Z" fill="url(#paint1_linear_1_2054)"/>
<path fill-rule="evenodd" clip-rule="evenodd" d="M13.2438 11.5624C13.1638 12.6356 13.1199 13.793 13.1199 15C13.1199 17.635 13.329 20.0306 13.6647 21.8284L13.1118 21.9316C12.7683 20.0923 12.5574 17.661 12.5574 15C12.5574 13.7796 12.6018 12.6082 12.6828 11.5206L13.2438 11.5624Z" fill="url(#paint2_linear_1_2054)"/>
<path fill-rule="evenodd" clip-rule="evenodd" d="M12.9814 15.9555C11.1567 14.8416 9.5803 13.712 8.4095 12.7139L8.04456 13.1419C9.24277 14.1635 10.8444 15.31 12.6883 16.4356L12.9814 15.9555Z" fill="url(#paint3_linear_1_2054)"/>
<path fill-rule="evenodd" clip-rule="evenodd" d="M20.9196 19.7491C19.3494 19.2663 17.2802 18.3664 15.0541 17.1523L14.7848 17.6462C17.0323 18.8719 19.1372 19.7896 20.7543 20.2868C21.5606 20.5347 22.2603 20.6827 22.8021 20.7062C23.0726 20.718 23.3194 20.6996 23.5261 20.6373C23.7343 20.5745 23.9245 20.4596 24.0374 20.264C24.2279 19.9341 24.115 19.5343 23.9234 19.1781C23.7219 18.8034 23.3802 18.3756 22.9341 17.9156C22.0389 16.9925 20.676 15.8922 19.0154 14.7641L18.6993 15.2293C20.3427 16.3458 21.6716 17.4217 22.5303 18.3072C22.9612 18.7515 23.2621 19.1361 23.428 19.4446C23.6039 19.7715 23.5833 19.9255 23.5503 19.9828C23.5316 20.015 23.4857 20.062 23.3638 20.0987C23.2404 20.1359 23.0632 20.1546 22.8266 20.1443C22.3541 20.1237 21.7069 19.9912 20.9196 19.7491Z" fill="url(#paint4_linear_1_2054)"/>
<path fill-rule="evenodd" clip-rule="evenodd" d="M15.8251 13.4314C16.8542 14.0255 17.8205 14.6325 18.699 15.2293L19.0151 14.7641C18.1249 14.1593 17.1469 13.545 16.1063 12.9442C13.6442 11.5227 11.2882 10.4404 9.46887 9.83605C8.56141 9.53462 7.77352 9.34731 7.16653 9.30144C6.86379 9.27856 6.58978 9.28946 6.36237 9.34878C6.13453 9.40822 5.92357 9.52503 5.80184 9.7359C5.67122 9.96214 5.68556 10.2225 5.76162 10.465C5.83798 10.7086 5.98725 10.9721 6.18635 11.2463C6.58584 11.7965 7.2262 12.4444 8.04429 13.1419L8.40921 12.7138C7.60552 12.0286 7.00327 11.414 6.64153 10.9158C6.46005 10.6659 6.3491 10.4586 6.29834 10.2968C6.24727 10.1339 6.26766 10.0541 6.28896 10.0171C6.30891 9.98263 6.36108 9.93045 6.50435 9.89307C6.64805 9.85559 6.85317 9.84186 7.12413 9.86234C7.66456 9.90317 8.40237 10.0745 9.29154 10.3699C11.0655 10.9591 13.3862 12.0233 15.8251 13.4314Z" fill="url(#paint5_linear_1_2054)"/>
<path fill-rule="evenodd" clip-rule="evenodd" d="M15.13 12.8189C17.0195 11.7915 18.7948 10.9909 20.2454 10.4812L20.059 9.95049C18.5737 10.4724 16.7706 11.2866 14.8613 12.3247L15.13 12.8189Z" fill="url(#paint6_linear_1_2054)"/>
<path fill-rule="evenodd" clip-rule="evenodd" d="M7.81734 17.8333C9.01188 16.7205 10.8138 15.3847 12.9657 14.0683L12.6721 13.5885C10.4996 14.9176 8.66435 16.2755 7.4339 17.4217C6.82038 17.9933 6.34584 18.5227 6.05679 18.9781C5.91248 19.2055 5.80589 19.4275 5.75707 19.6369C5.7079 19.8479 5.71275 20.0692 5.82525 20.2641C6.01547 20.5936 6.41726 20.6959 6.82068 20.7083C7.24502 20.7214 7.78504 20.6399 8.40494 20.4843C9.64901 20.172 11.2793 19.5441 13.0828 18.6729L12.8381 18.1664C11.0534 19.0286 9.46113 19.6392 8.268 19.9387C7.66931 20.089 7.18708 20.1568 6.83803 20.1461C6.46811 20.1347 6.34537 20.04 6.3124 19.9829C6.29383 19.9507 6.27619 19.8877 6.3049 19.7647C6.33394 19.64 6.40558 19.4783 6.5317 19.2796C6.78344 18.8829 7.21835 18.3913 7.81734 17.8333Z" fill="url(#paint7_linear_1_2054)"/>
<path fill-rule="evenodd" clip-rule="evenodd" d="M15.8486 16.5686C14.8136 17.1661 13.7992 17.7022 12.8383 18.1664L13.0829 18.6728C14.0568 18.2024 15.0834 17.6599 16.1299 17.0557C18.592 15.6342 20.7074 14.135 22.1404 12.8616C22.8552 12.2264 23.4113 11.6377 23.7545 11.135C23.9257 10.8843 24.0533 10.6415 24.1156 10.4149C24.1781 10.1879 24.1824 9.94678 24.0606 9.73591C23.9315 9.51227 23.7026 9.39459 23.458 9.33846C23.2126 9.28214 22.9147 9.2782 22.5835 9.31134C21.9192 9.37781 21.054 9.60084 20.059 9.95048L20.2455 10.4812C21.2226 10.1378 22.0396 9.93108 22.6396 9.87105C22.9405 9.84094 23.1704 9.84958 23.3321 9.88671C23.4947 9.92402 23.5524 9.98065 23.5735 10.0172C23.5934 10.0517 23.6125 10.123 23.5733 10.2657C23.5339 10.4089 23.4432 10.5934 23.29 10.8178C22.9844 11.2654 22.4671 11.8187 21.7667 12.4411C20.3695 13.6827 18.2875 15.1605 15.8486 16.5686Z" fill="url(#paint8_linear_1_2054)"/>
<path d="M13.4778 22.5902C13.8836 22.5902 14.2125 22.2612 14.2125 21.8554C14.2125 21.4496 13.8836 21.1206 13.4778 21.1206C13.072 21.1206 12.743 21.4496 12.743 21.8554C12.743 22.2612 13.072 22.5902 13.4778 22.5902Z" fill="black"/>
<path d="M7.61931 12.4638C7.82222 12.1124 8.2716 11.992 8.62304 12.1949C8.97448 12.3978 9.09489 12.8472 8.89199 13.1986C8.68908 13.5501 8.2397 13.6705 7.88826 13.4676C7.53682 13.2647 7.41641 12.8153 7.61931 12.4638Z" fill="black"/>
<path d="M20.7893 9.94599C20.9922 10.2974 20.8718 10.7468 20.5203 10.9497C20.1689 11.1526 19.7195 11.0322 19.5166 10.6808C19.3137 10.3293 19.4341 9.87995 19.7856 9.67704C20.137 9.47414 20.5864 9.59455 20.7893 9.94599Z" fill="black"/>
<path fill-rule="evenodd" clip-rule="evenodd" d="M14.9315 13.7211C15.638 13.7211 16.2108 14.2938 16.2108 15.0003C16.2108 15.7068 15.638 16.2795 14.9315 16.2795C14.2251 16.2795 13.6523 15.7068 13.6523 15.0003C13.6523 14.2938 14.2251 13.7211 14.9315 13.7211Z" fill="black"/>
</g>
<defs>
<linearGradient id="paint0_linear_1_2054" x1="15.1987" y1="25.2469" x2="18.0856" y2="16.5561" gradientUnits="userSpaceOnUse">
<stop offset="0.377307" stop-opacity="0.6"/>
<stop offset="0.992239" stop-opacity="0"/>
</linearGradient>
<linearGradient id="paint1_linear_1_2054" x1="14.9863" y1="4.75313" x2="18.6283" y2="13.0975" gradientUnits="userSpaceOnUse">
<stop offset="0.634963" stop-opacity="0.81"/>
<stop offset="1" stop-opacity="0"/>
</linearGradient>
<linearGradient id="paint2_linear_1_2054" x1="13.3828" y1="11.5415" x2="13.3828" y2="21.8919" gradientUnits="userSpaceOnUse">
<stop stop-opacity="0.81"/>
<stop offset="0.646422"/>
</linearGradient>
<linearGradient id="paint3_linear_1_2054" x1="8.31177" y1="12.9373" x2="12.4908" y2="16.5081" gradientUnits="userSpaceOnUse">
<stop stop-opacity="0.6"/>
<stop offset="1" stop-opacity="0"/>
</linearGradient>
<linearGradient id="paint4_linear_1_2054" x1="24.2966" y1="20.1169" x2="14.5001" y2="18.8231" gradientUnits="userSpaceOnUse">
<stop offset="0.60731" stop-opacity="0.81"/>
<stop offset="1" stop-opacity="0"/>
</linearGradient>
<linearGradient id="paint5_linear_1_2054" x1="18.601" y1="14.8836" x2="5.6081" y2="10.3756" gradientUnits="userSpaceOnUse">
<stop stop-opacity="0.81"/>
<stop offset="0.478389"/>
</linearGradient>
<linearGradient id="paint6_linear_1_2054" x1="20.1457" y1="10.2687" x2="14.5546" y2="12.2868" gradientUnits="userSpaceOnUse">
<stop stop-opacity="0.6"/>
<stop offset="1" stop-opacity="0"/>
</linearGradient>
<linearGradient id="paint7_linear_1_2054" x1="5.77465" y1="20.1638" x2="12.2119" y2="13.0706" gradientUnits="userSpaceOnUse">
<stop offset="0.54518" stop-opacity="0.81"/>
<stop offset="1" stop-opacity="0"/>
</linearGradient>
<linearGradient id="paint8_linear_1_2054" x1="24.1164" y1="9.65979" x2="13.4545" y2="18.9208" gradientUnits="userSpaceOnUse">
<stop offset="0.518582"/>
<stop offset="1" stop-opacity="0.81"/>
</linearGradient>
<clipPath id="clip0_1_2054">
<rect width="24" height="24" fill="white" transform="translate(3 3)"/>
</clipPath>
</defs>
</svg>
