<svg width="30" height="30" viewBox="0 0 30 30" fill="none" xmlns="http://www.w3.org/2000/svg">
<rect width="30" height="30" rx="6" fill="white"/>
<path d="M14.8937 5L23.5539 10V20L14.8937 25L6.2334 20V10L14.8937 5Z" fill="white"/>
<path d="M14.8987 5.00643L6.29364 10.0125V19.9955L14.8987 25L23.5006 19.9955V10.006L14.8987 5.00643ZM20.9516 18.5142L14.8987 22.0277L8.84593 18.5142V11.4874L14.8987 7.97065L20.9516 11.4874V18.5142Z" fill="black"/>
<path d="M14.8987 24.9903L23.5006 19.9859V10.0044L14.8987 5V7.96261L20.9516 11.4858V18.5126L14.8987 22.0261V24.9887V24.9903Z" fill="url(#paint0_linear_1_2056)" style="mix-blend-mode:multiply"/>
<path d="M14.9004 22.0277L8.84756 18.5142V11.4874L14.9004 7.97065V5.00643L6.29688 10.006V19.9972L14.8987 24.9919V22.0293L14.9004 22.0277Z" fill="url(#paint1_linear_1_2056)" style="mix-blend-mode:multiply"/>
<path d="M18.9162 17.3334L14.8988 19.666L10.8781 17.3334V12.6682L14.8988 10.3324L18.9162 12.6682L17.2411 13.639L14.8988 12.2773L12.5532 13.639V16.3625L14.8988 17.7244L17.2411 16.3625L18.9162 17.3334Z" fill="black"/>
<defs>
<linearGradient id="paint0_linear_1_2056" x1="19.2005" y1="24.9919" x2="19.2005" y2="14.9976" gradientUnits="userSpaceOnUse">
<stop/>
<stop offset="1" stop-opacity="0"/>
</linearGradient>
<linearGradient id="paint1_linear_1_2056" x1="10.5986" y1="5.00643" x2="10.5986" y2="15.0008" gradientUnits="userSpaceOnUse">
<stop/>
<stop offset="1" stop-opacity="0"/>
</linearGradient>
</defs>
</svg>
