<svg width="30" height="30" viewBox="0 0 30 30" fill="none" xmlns="http://www.w3.org/2000/svg">
<rect width="30" height="30" rx="6" fill="white"/>
<g clip-path="url(#clip0_1_2058)">
<path d="M12.77 9.07998C9.32081 10.3961 9.00494 13.7806 8.00683 15.36C7.00873 16.9394 4.70929 17.8293 5.02514 18.6441C5.341 19.4589 7.64044 18.5814 9.45978 19.1079C11.2791 19.6344 13.7554 21.9157 17.2046 20.5996C18.0408 20.2795 18.797 19.783 19.4208 19.1446C20.0447 18.5061 20.5214 17.7409 20.818 16.9018C20.8482 16.8336 20.8498 16.7564 20.8225 16.687C20.7953 16.6177 20.7414 16.5619 20.6727 16.532C20.604 16.5021 20.5262 16.5004 20.4563 16.5275C20.3864 16.5545 20.3302 16.608 20.3 16.6761C19.9437 17.3891 19.416 18.0041 18.7636 18.4669C18.1112 18.9298 17.354 19.2263 16.5588 19.3303C15.7636 19.4344 14.9548 19.3427 14.2037 19.0635C13.4527 18.7842 12.7824 18.326 12.252 17.7291C11.9451 17.3872 11.6897 17.0029 11.4939 16.5884C11.4307 16.4756 11.3802 16.3502 11.3297 16.2374C11.2791 16.1246 11.2412 15.9867 11.2033 15.8614C12.2519 15.385 13.4396 14.8711 14.8041 14.3572C16.1686 13.8432 17.3436 13.4296 18.4175 13.1037C19.1503 12.8781 19.8199 12.69 20.4137 12.5396L20.5527 12.5145C20.5962 12.5026 20.6428 12.5076 20.6827 12.5286C20.7226 12.5495 20.753 12.5849 20.7675 12.6274C20.79 12.6754 20.8069 12.7259 20.818 12.7778C20.9415 13.1114 21.0345 13.4554 21.096 13.8056C21.1017 13.8392 21.1156 13.8709 21.1362 13.898C21.1569 13.9252 21.1838 13.9471 21.2147 13.9618C21.2457 13.9765 21.2797 13.9837 21.314 13.9827C21.3483 13.9817 21.3818 13.9726 21.4118 13.9561C21.9046 13.6928 22.3594 13.4296 22.7637 13.1914C24.2798 12.2638 25.1136 11.4741 24.9368 11.0354C24.76 10.5967 23.6228 10.5591 21.8793 10.8725C21.3234 10.9727 20.7043 11.1106 20.0473 11.2861L19.7062 11.3739C19.1377 11.5243 18.5565 11.6872 17.95 11.8753C16.8129 12.2262 15.5874 12.6524 14.324 13.1288C13.0605 13.6051 12.0372 14.0438 11.0012 14.5076C10.9961 13.7121 11.1873 12.9275 11.558 12.2221C11.9288 11.5168 12.4679 10.9121 13.1282 10.4609C13.7886 10.0097 14.5502 9.72566 15.3466 9.63353C16.143 9.5414 16.9501 9.64399 17.6973 9.93235C17.7518 9.95082 17.8103 9.95356 17.8663 9.94025C17.9222 9.92693 17.9732 9.89811 18.0132 9.85714C18.0436 9.82599 18.0662 9.78816 18.0791 9.74673C18.092 9.7053 18.0949 9.66144 18.0875 9.6187C18.0801 9.57596 18.0627 9.53555 18.0366 9.50075C18.0105 9.46595 17.9765 9.43774 17.9374 9.41842C17.1529 8.99197 16.284 8.74073 15.3914 8.68227C14.4988 8.62381 13.6042 8.75955 12.77 9.07998Z" fill="black"/>
</g>
<defs>
<clipPath id="clip0_1_2058">
<rect width="20" height="20" fill="white" transform="translate(5 5)"/>
</clipPath>
</defs>
</svg>
