<svg width="30" height="30" viewBox="0 0 30 30" fill="none" xmlns="http://www.w3.org/2000/svg">
<rect width="30" height="30" rx="6" fill="white"/>
<path fill-rule="evenodd" clip-rule="evenodd" d="M16.08 12.2412L19.32 10.3417V14.1407L16.08 12.2412ZM19.32 20.3819L15 22.9146L10.68 20.3819V15.9497L15 18.4824L19.32 15.9497V20.3819ZM10.68 10.3417L13.92 12.2412L10.68 14.1407V10.3417ZM15.54 13.1457L18.78 15.0452L15.54 16.9447V13.1457ZM14.4599 16.9447L11.2199 15.0452L14.4599 13.1457V16.9447ZM18.7799 9.43719L14.9999 11.608L11.2199 9.43719L14.9999 7.17588L18.7799 9.43719ZM9.59998 9.07538V20.9246L15 24L20.4 20.9246V9.07538L15 6L9.59998 9.07538Z" fill="black"/>
</svg>
