<svg width="30" height="30" viewBox="0 0 30 30" fill="none" xmlns="http://www.w3.org/2000/svg">
<rect width="30" height="30" rx="6" fill="white"/>
<path d="M21.8819 12.354H17.6459V16.59H21.8819V12.354Z" fill="black"/>
<path d="M13.413 18.177C13.413 18.4915 13.3197 18.7989 13.145 19.0604C12.9703 19.3218 12.722 19.5256 12.4314 19.646C12.1409 19.7663 11.8212 19.7978 11.5128 19.7364C11.2044 19.6751 10.921 19.5237 10.6987 19.3013C10.4763 19.0789 10.3249 18.7956 10.2635 18.4872C10.2022 18.1788 10.2337 17.8591 10.354 17.5685C10.4744 17.278 10.6781 17.0297 10.9396 16.855C11.2011 16.6803 11.5085 16.587 11.823 16.587H13.413V12.354H11.823C10.6713 12.354 9.54549 12.6955 8.5879 13.3354C7.63032 13.9752 6.88398 14.8846 6.44325 15.9486C6.00252 17.0126 5.88721 18.1835 6.11189 19.313C6.33657 20.4426 6.89115 21.4801 7.70551 22.2945C8.51987 23.1088 9.55742 23.6634 10.687 23.8881C11.8165 24.1128 12.9873 23.9975 14.0513 23.5567C15.1153 23.116 16.0248 22.3697 16.6646 21.4121C17.3044 20.4545 17.6459 19.3287 17.6459 18.177V16.587H13.413V18.177Z" fill="black"/>
<path d="M19.236 10.236H24V6H19.236C17.6921 6.00159 16.212 6.61559 15.1203 7.70727C14.0286 8.79895 13.4146 10.2791 13.413 11.823V12.354H17.646V11.823C17.6468 11.4018 17.8147 10.9982 18.1128 10.7006C18.4109 10.4031 18.8148 10.236 19.236 10.236Z" fill="black"/>
</svg>
