<svg width="30" height="30" viewBox="0 0 30 30" fill="none" xmlns="http://www.w3.org/2000/svg">
<rect width="30" height="30" rx="6" fill="white"/>
<g clip-path="url(#clip0_1_2060)">
<path d="M8.96238 13.9204C8.95418 13.3988 9.12377 12.89 9.44328 12.4777L12.723 15.7574C12.3096 16.0749 11.8015 16.2442 11.2803 16.2383C10.6663 16.2358 10.0783 15.9907 9.6441 15.5566C9.20995 15.1224 8.96493 14.5343 8.96238 13.9204Z" fill="black"/>
<path d="M18.7197 16.2358C19.0268 16.2371 19.3311 16.1776 19.6151 16.0608C19.899 15.9439 20.1571 15.772 20.3743 15.555C20.5915 15.338 20.7637 15.0801 20.8809 14.7963C20.998 14.5124 21.0578 14.2082 21.0569 13.9011C21.0626 13.3799 20.8933 12.8719 20.576 12.4584L17.2866 15.7477C17.6955 16.0676 18.2006 16.2396 18.7197 16.2358Z" fill="black"/>
<path d="M21.2564 11.7924C21.7621 12.3861 22.0399 13.1405 22.0403 13.9203C22.0397 14.7974 21.6908 15.6383 21.0704 16.2583C20.45 16.8783 19.6088 17.2265 18.7317 17.2265C17.9559 17.2274 17.2047 16.954 16.611 16.4547L15.0192 18.0464L13.4274 16.4547C12.8332 16.9549 12.081 17.2283 11.3042 17.2265C10.869 17.2281 10.4376 17.1438 10.035 16.9784C9.63233 16.8129 9.2663 16.5697 8.95783 16.2626C8.64935 15.9554 8.4045 15.5904 8.23734 15.1885C8.07017 14.7866 7.98396 14.3556 7.98365 13.9203C7.98427 13.144 8.25744 12.3926 8.75549 11.7972L8.0125 11.0542L7.30319 10.3328C6.44872 11.7377 5.9978 13.3508 5.99995 14.9951C5.99963 16.177 6.23223 17.3474 6.68444 18.4393C7.13665 19.5312 7.79961 20.5234 8.63543 21.3589C9.47126 22.1946 10.4636 22.8573 11.5556 23.3092C12.6477 23.7611 13.8181 23.9934 14.9999 23.9927C17.385 23.9921 19.6724 23.045 21.3598 21.3594C23.0472 19.6738 23.9968 17.3874 24 15.0023C24.0148 13.3583 23.5683 11.7431 22.7111 10.34L21.2564 11.7924Z" fill="black"/>
<path d="M21.5185 8.78915C20.6792 7.90674 19.6691 7.20439 18.5497 6.72487C17.4303 6.24536 16.225 5.99871 15.0072 5.99995C13.7891 5.99936 12.5836 6.24629 11.4639 6.72576C10.3442 7.20523 9.33354 7.90723 8.49339 8.78915C8.27458 9.0296 8.0606 9.27005 7.86102 9.52733L14.9999 16.6638L22.1389 9.52011C21.9504 9.26151 21.743 9.01719 21.5185 8.78915ZM15.0072 14.9975L9.47683 9.46721C10.1999 8.73647 11.0614 8.1572 12.011 7.76333C12.9606 7.36947 13.9791 7.16889 15.0072 7.17334C16.0354 7.16768 17.0543 7.3677 18.004 7.76164C18.9538 8.15557 19.8152 8.73548 20.5375 9.46721L15.0072 14.9975Z" fill="black"/>
</g>
<defs>
<clipPath id="clip0_1_2060">
<rect width="18" height="18" fill="white" transform="translate(6 6)"/>
</clipPath>
</defs>
</svg>
