<svg width="30" height="30" viewBox="0 0 30 30" fill="none" xmlns="http://www.w3.org/2000/svg">
<rect width="30" height="30" rx="6" fill="white"/>
<mask id="mask0_1_2062" style="mask-type:alpha" maskUnits="userSpaceOnUse" x="6" y="6" width="18" height="18">
<path d="M7.58931 20.1346V19.1048C7.58931 18.1954 8.30891 17.3345 9.51965 16.7948C10.3695 16.4251 11.2602 16.1646 12.1795 16.0145L12.1696 20.1346C12.1696 21.4049 11.1399 22.4247 9.87945 22.4247C8.61905 22.4247 7.58931 21.395 7.58931 20.1346ZM17.8194 20.1246V15.5742C18.9595 15.4141 20.0698 15.0941 21.1194 14.6437C21.5796 14.444 22.009 14.1835 22.3997 13.8833V20.1235C22.3897 21.3939 21.3699 22.4137 20.1095 22.4137C18.8491 22.4137 17.8194 21.3939 17.8194 20.1235M7.57938 9.87362C7.58931 8.61322 8.60912 7.59341 9.86952 7.59341C11.1299 7.59341 12.1597 8.61322 12.1597 9.87362V14.4241C11.0196 14.5841 9.90925 14.9042 8.85965 15.3545C8.39941 15.5543 7.97008 15.8148 7.57938 16.115V9.87473V9.87362ZM17.8094 9.87362C17.8094 8.60328 18.8392 7.58348 20.0996 7.58348C21.36 7.58348 22.3897 8.61322 22.3897 9.87362V10.9034C22.3996 11.8139 21.68 12.6737 20.4693 13.2034C19.6195 13.5732 18.7288 13.8336 17.8094 13.9837V9.87362ZM16.2301 9.87362V14.1636C15.8305 14.1934 15.42 14.2034 14.9994 14.2034C14.5789 14.2034 14.1695 14.2232 13.7699 14.2431V9.87252C13.7401 7.73248 11.9698 6.01183 9.81985 6.05267C7.71954 6.08247 6.0298 7.77331 6 9.87252V20.1335C6.0298 22.2735 7.80011 23.9942 9.95009 23.9533C12.0504 23.9235 13.7401 22.2338 13.7699 20.1335V15.8435C14.1695 15.8137 14.58 15.8037 14.9994 15.8037C15.4188 15.8037 15.8294 15.7839 16.2301 15.764V20.1445C16.2599 22.2846 18.0302 24.0052 20.1801 23.9644C22.2804 23.9346 23.9702 22.2448 24 20.1445V9.87362C23.9801 7.73358 22.2496 6.003 20.1095 6.003C17.9695 6.003 16.229 7.73358 16.229 9.87362" fill="black"/>
</mask>
<g mask="url(#mask0_1_2062)">
<path d="M16.5436 -2.86013L-2.86627 13.4671L13.461 32.877L32.8708 16.5497L16.5436 -2.86013Z" fill="url(#paint0_linear_1_2062)"/>
</g>
<defs>
<linearGradient id="paint0_linear_1_2062" x1="8.16725" y1="21.1028" x2="21.9427" y2="9.51504" gradientUnits="userSpaceOnUse">
<stop/>
<stop offset="1" stop-color="#1A1A1A"/>
</linearGradient>
</defs>
</svg>
