<svg width="30" height="30" viewBox="0 0 30 30" fill="none" xmlns="http://www.w3.org/2000/svg">
<rect width="30" height="30" rx="6" fill="white"/>
<g clip-path="url(#clip0_1_2069)">
<path d="M8.18252 9.11112C8.2943 8.97063 8.41274 8.83545 8.53118 8.70027C8.53649 8.69357 8.5485 8.69222 8.55381 8.68551C8.56448 8.67215 8.5818 8.66409 8.59242 8.65068L8.60309 8.63732C8.68566 8.561 8.7735 8.47793 8.87479 8.40557C9.23317 8.1335 9.60509 7.92682 9.99726 7.79083C11.2551 7.34921 12.6553 7.62137 13.7534 8.65797C15.2865 10.0951 15.1492 12.4103 13.9253 13.9491C12.3788 16.2431 9.72092 19.4436 13.4009 22.3106C14.0626 22.8261 14.5534 23.2511 16.6377 23.8534C15.2746 24.1045 14.0106 24.0264 12.6038 23.6671C11.6086 23.1054 10.0441 21.9027 9.5118 20.2784C8.7073 17.8152 10.9282 14.1329 12.0015 12.7147C13.4752 10.752 11.0907 8.62724 9.33518 10.9993C8.41755 12.2355 6.81215 15.7336 7.37006 18.3283C7.69626 19.7998 8.13104 20.8723 9.85497 22.3457C9.53529 22.1571 9.22484 21.9431 8.92371 21.7037C4.91826 17.9726 5.38296 12.2037 8.18252 9.11112Z" fill="url(#paint0_linear_1_2069)"/>
<path d="M21.8178 20.8888C21.7061 21.0293 21.5876 21.1645 21.4692 21.2997C21.4639 21.3064 21.4519 21.3077 21.4465 21.3144C21.4359 21.3278 21.4186 21.3359 21.4079 21.3493L21.3973 21.3626C21.3147 21.4389 21.2269 21.522 21.1256 21.5944C20.7672 21.8664 20.3953 22.0731 20.0031 22.2091C18.7452 22.6507 17.345 22.3786 16.247 21.342C14.7138 19.9048 14.8511 17.5897 16.075 16.0509C17.6216 13.7569 20.2794 10.5564 16.5994 7.68938C15.9378 7.17386 15.4469 6.74884 13.3627 6.14653C14.7258 5.89541 15.9897 5.97353 17.3966 6.33287C18.3917 6.89455 19.9563 8.09721 20.4886 9.72155C21.2931 12.1847 19.0722 15.867 17.9988 17.2852C16.5252 19.248 18.9097 21.3727 20.6652 19.0007C21.5828 17.7645 23.1882 14.2664 22.6303 11.6716C22.3041 10.2002 21.8693 9.1276 20.1454 7.65423C20.4651 7.84287 20.7755 8.05684 21.0767 8.29624C25.0821 12.0273 24.6174 17.7963 21.8178 20.8888Z" fill="url(#paint1_linear_1_2069)"/>
</g>
<defs>
<linearGradient id="paint0_linear_1_2069" x1="6.00018" y1="15" x2="23.9999" y2="15" gradientUnits="userSpaceOnUse">
<stop/>
<stop offset="1"/>
</linearGradient>
<linearGradient id="paint1_linear_1_2069" x1="6.00041" y1="15" x2="24.0002" y2="15" gradientUnits="userSpaceOnUse">
<stop/>
<stop offset="1"/>
</linearGradient>
<clipPath id="clip0_1_2069">
<rect width="18" height="18" fill="white" transform="translate(6 6)"/>
</clipPath>
</defs>
</svg>
