<svg width="30" height="30" viewBox="0 0 30 30" fill="none" xmlns="http://www.w3.org/2000/svg">
<rect width="30" height="30" rx="6" fill="white"/>
<g clip-path="url(#clip0_1_2040)">
<path d="M9.7048 12.3114L6.97518 10.9215C6.761 11.3408 6.581 11.7805 6.43518 12.2294L9.34936 13.1727C9.44505 12.8765 9.56353 12.5871 9.7048 12.3114Z" fill="black"/>
<path d="M12.0219 9.86204L13.5326 12.4663C13.7536 12.3387 13.9905 12.2408 14.2343 12.1747L13.4528 9.26736C13.651 9.21495 13.8538 9.16938 14.0589 9.13748L13.5781 6.11166C13.1133 6.18457 12.6508 6.29622 12.2042 6.44204L13.1384 9.30837C12.8399 9.40635 12.5505 9.5271 12.2726 9.66837L10.9009 6.9866C10.484 7.20077 10.0784 7.44913 9.70016 7.7271L11.5047 10.1993C11.671 10.0785 11.8442 9.96685 12.0219 9.86204Z" fill="black"/>
<path d="M20.1357 12.0197L17.5314 13.5327C17.659 13.7537 17.7592 13.9906 17.8253 14.2344L20.7326 13.4506C20.7873 13.6489 20.8306 13.8516 20.8625 14.0544L23.8883 13.5737C23.8154 13.1089 23.7038 12.6463 23.5557 12.1997L20.6916 13.1385C20.5936 12.84 20.4729 12.5506 20.3316 12.2727L23.0134 10.8965C22.7992 10.4795 22.5509 10.0739 22.2729 9.69569L19.8007 11.5025C19.9192 11.6689 20.0309 11.842 20.1357 12.0197Z" fill="black"/>
<path d="M19.0739 6.97291C18.6547 6.75873 18.2149 6.57873 17.7661 6.43291L16.825 9.34709C17.119 9.44278 17.4083 9.56127 17.6863 9.70253L19.0739 6.97291Z" fill="black"/>
<path d="M17.9848 9.80962L16.4559 12.4641C16.6769 12.5916 16.882 12.7489 17.062 12.9289L21.3501 8.62481C21.0174 8.29215 20.6552 7.98456 20.2769 7.70886L18.5088 10.1491C18.3402 10.0261 18.1671 9.91215 17.9848 9.80962Z" fill="black"/>
<path d="M9.80954 12.0106L12.4617 13.5418C12.5893 13.3208 12.7465 13.1157 12.9265 12.9334L8.62701 8.64305C8.29435 8.97571 7.98676 9.33799 7.71106 9.71622L10.149 11.4866C10.0283 11.6552 9.91435 11.8306 9.80954 12.0106Z" fill="black"/>
<path d="M15.9273 9.08508L16.3898 6.1071C15.9318 6.03647 15.4647 6.00001 14.9976 6.00001H14.9908V12.0744H14.9976C15.2528 12.0744 15.508 12.1063 15.7518 12.1724L16.5379 9.21267C16.3374 9.15799 16.1346 9.11698 15.9273 9.08508Z" fill="black"/>
<path d="M12.1724 14.2458L9.21265 13.4575C9.16025 13.658 9.11696 13.863 9.08506 14.0681L6.10709 13.6033C6.03646 14.0613 6 14.5329 6 15H12.0744C12.0744 14.7425 12.1086 14.4896 12.1724 14.2458Z" fill="black"/>
<path d="M20.2952 17.6886L23.0248 19.0785C23.239 18.6592 23.419 18.2195 23.5648 17.7706L20.6506 16.8273C20.5549 17.1235 20.4364 17.4129 20.2952 17.6886Z" fill="black"/>
<path d="M17.9756 20.1357L16.465 17.5314C16.244 17.659 16.007 17.757 15.7632 17.823L16.5447 20.7304C16.3465 20.7828 16.1437 20.8284 15.9387 20.8603L16.4194 23.8861C16.8842 23.8132 17.3468 23.7015 17.7933 23.5557L16.8592 20.6894C17.1576 20.5914 17.447 20.4706 17.725 20.3294L19.0989 23.0112C19.5159 22.797 19.9214 22.5486 20.2997 22.2706L18.4951 19.7962C18.3288 19.9215 18.1556 20.0332 17.9756 20.1357Z" fill="black"/>
<path d="M9.86429 17.9803L12.4686 16.4651C12.341 16.2441 12.2407 16.0071 12.1747 15.7633L9.26733 16.5471C9.21264 16.3489 9.16935 16.1461 9.13745 15.9433L6.11163 16.4241C6.18454 16.8889 6.29619 17.3514 6.44429 17.798L9.30834 16.8615C9.40631 17.1577 9.52707 17.4494 9.66834 17.7273L6.98657 19.1035C7.20075 19.5205 7.4491 19.9261 7.72707 20.3043L10.1992 18.4975C10.0807 18.3311 9.9691 18.158 9.86429 17.9803Z" fill="black"/>
<path d="M10.9261 23.0271C11.3453 23.2413 11.7851 23.4213 12.2339 23.5671L13.1749 20.6529C12.881 20.5572 12.5917 20.4387 12.3137 20.2975L10.9261 23.0271Z" fill="black"/>
<path d="M12.0128 20.1904L13.5417 17.536C13.3207 17.4084 13.1156 17.2512 12.9356 17.0712L8.64752 21.3752C8.98018 21.7079 9.34246 22.0155 9.72069 22.2912L11.4888 19.8509C11.6574 19.9717 11.8328 20.0856 12.0128 20.1904Z" fill="black"/>
<path d="M20.1881 17.9894L17.5359 16.4582C17.4083 16.6792 17.2511 16.8843 17.0711 17.0666L21.3729 21.357C21.7055 21.0243 22.0131 20.662 22.2888 20.2838L19.8508 18.5134C19.9716 18.3425 20.0855 18.1694 20.1881 17.9894Z" fill="black"/>
<path d="M14.2457 17.8276L13.4597 20.7874C13.6602 20.8398 13.8652 20.8831 14.0703 20.915L13.6078 23.8929C14.0657 23.9636 14.5328 24 14.9999 24H15.0067V17.9256H14.9999C14.7447 17.9256 14.4895 17.8914 14.2457 17.8276Z" fill="black"/>
<path d="M17.9255 15C17.9255 15.2575 17.8937 15.5104 17.8276 15.7542L20.7873 16.5425C20.8397 16.342 20.883 16.137 20.9149 15.9319L23.8929 16.3967C23.9635 15.9387 24 15.4671 24 15H17.9255Z" fill="black"/>
</g>
<defs>
<clipPath id="clip0_1_2040">
<rect width="18" height="18" fill="white" transform="translate(6 6)"/>
</clipPath>
</defs>
</svg>
