<svg width="30" height="30" viewBox="0 0 30 30" fill="none" xmlns="http://www.w3.org/2000/svg">
<rect width="30" height="30" rx="6" fill="white"/>
<path d="M23.9883 13.8969C23.6982 13.6794 23.3966 13.4776 23.0844 13.2925C22.9499 13.2081 22.8248 13.1098 22.711 12.9993C22.4778 12.7711 22.0892 12.3707 21.9626 12.1244C21.8804 11.9733 21.9139 11.6847 21.9779 11.4142C22.0873 10.9401 22.004 10.4423 21.7462 10.0285L21.3408 9.37271C21.1537 9.07436 21.0039 8.75472 20.8941 8.42074C20.7537 7.99187 20.5099 7.60341 20.1839 7.28893C19.5239 6.64975 17.6965 6.33695 16.1798 6.28557C16.0861 6.25846 15.9909 6.23627 15.8948 6.21908C15.2181 6.10423 14.4987 5.91686 13.8509 6.04077C12.8922 6.21757 11.9212 6.51526 11.1972 7.24964C11.0448 7.40075 10.8223 7.46874 10.6653 7.60928C10.3528 7.88882 9.93368 7.88882 9.65628 8.1986C9.49318 8.37992 9.41851 8.96924 8.99326 9.1944C8.28908 9.56915 7.77389 9.98016 7.59862 10.1902C7.46906 10.3489 7.36999 10.5332 7.245 10.6949C7.12001 10.8566 6.51034 11.1482 6.33049 11.316C6.196 11.4639 6.09837 11.641 6.04544 11.8331C5.99249 12.0252 5.98571 12.2269 6.02564 12.4221C6.03632 12.4689 6.04393 12.5067 6.05004 12.5369C6.12014 12.7938 6.30915 13.2577 6.26494 13.4708C6.21464 13.7231 5.55925 15.6029 7.02705 16.1045C7.16096 16.1445 7.27847 16.2259 7.36239 16.3369C7.4463 16.4478 7.49224 16.5825 7.49344 16.7211C7.52341 16.9721 7.59607 17.2164 7.70836 17.4435C7.8059 17.6276 7.94975 17.7838 8.12599 17.8968C8.31401 18.0744 8.49162 18.2625 8.65793 18.4604C9.17616 19.4108 9.03136 19.8854 10.0297 20.2087C10.2845 20.2922 10.5294 20.4032 10.7598 20.5396C11.0402 20.7072 11.3408 20.8392 11.6545 20.9325L11.6941 20.9461C11.9151 20.4187 12.1377 19.917 12.3617 19.4455C11.7837 18.8863 11.3713 18.1808 11.1692 17.4057C10.9671 16.6305 10.9831 15.8151 11.2155 15.0483C11.2204 15.0319 11.2294 15.017 11.2416 15.005C11.2539 14.9929 11.269 14.9842 11.2856 14.9795C11.3022 14.9748 11.3197 14.9744 11.3365 14.9782C11.3533 14.9821 11.3688 14.9901 11.3817 15.0015C11.7566 15.3279 12.8967 16.5035 12.7626 18.6281C13.1573 17.8468 13.5399 17.1594 13.8905 16.573C13.4671 15.8867 13.2402 15.0991 13.234 14.2946C13.2279 13.4901 13.4427 12.6992 13.8554 12.0065C13.8649 11.9922 13.8777 11.9804 13.8929 11.9722C13.9081 11.9641 13.9251 11.9598 13.9423 11.9598C13.9596 11.9598 13.9766 11.9641 13.9917 11.9722C14.0069 11.9804 14.0198 11.9922 14.0292 12.0065C14.2929 12.3934 15.0062 13.6687 14.5642 15.4896C14.8858 15.003 15.1464 14.6434 15.3156 14.4182C15.7729 11.396 18.0774 10.4063 18.6826 10.1962C18.6988 10.1903 18.7162 10.1885 18.7332 10.1911C18.7503 10.1936 18.7664 10.2004 18.7801 10.2108C18.7938 10.2212 18.8047 10.2349 18.8116 10.2506C18.8186 10.2663 18.8214 10.2835 18.8197 10.3005C18.725 11.2203 18.3872 12.099 17.8405 12.8479C17.2937 13.5969 16.5574 14.1896 15.7058 14.5663C15.3842 14.9849 15.0763 15.4261 14.7806 15.8795C15.8003 15.0876 17.2315 14.7159 18.4204 15.0015C18.4371 15.0054 18.4528 15.0133 18.4656 15.0247C18.4785 15.036 18.4884 15.0503 18.4943 15.0664C18.5001 15.0824 18.5019 15.0997 18.4994 15.1166C18.4969 15.1335 18.4902 15.1495 18.4799 15.1632C18.1384 15.6165 16.7789 17.1276 14.2121 16.7769C13.7808 17.5009 13.3829 18.2337 13.0324 18.9333C14.1374 18.1052 15.7531 17.7865 17.006 18.2049C17.0227 18.2101 17.0379 18.2194 17.0499 18.2318C17.0621 18.2443 17.0709 18.2595 17.0754 18.2764C17.08 18.2931 17.0802 18.3108 17.076 18.3276C17.0718 18.3444 17.0635 18.3599 17.0517 18.3726C16.663 18.7883 15.1647 20.1513 12.7001 19.6103C12.4684 20.0953 12.124 20.8902 11.9563 21.2831C11.8984 21.4191 11.845 21.5551 11.8039 21.694C11.6957 22.0144 11.5478 22.4148 11.3725 22.8153C11.3482 22.8723 11.3359 22.9337 11.3364 22.9956C11.3369 23.0576 11.3502 23.1187 11.3755 23.1754C11.4008 23.232 11.4375 23.2829 11.4834 23.325C11.5293 23.3669 11.5834 23.3993 11.6423 23.4198C13.5863 24.1085 15.6972 24.1861 17.6872 23.6419C17.7531 23.6233 17.8137 23.5902 17.8649 23.5451C17.916 23.5003 17.9564 23.4444 17.983 23.382C18.0241 23.2853 18.0652 23.193 18.0652 23.193C18.0652 23.193 18.9249 21.2135 19.0513 20.3508C19.0878 20.0789 19.173 19.816 19.3029 19.574C19.3702 19.4529 19.4676 19.3509 19.5857 19.2773C19.7038 19.2038 19.8389 19.1614 19.9782 19.1539C20.632 19.1192 22.0266 19.0285 22.5342 18.8698C23.2094 18.6567 22.9168 17.4389 22.8802 17.3089C22.8436 17.179 23.2049 16.8722 23.2795 16.694C23.3543 16.5156 23.0966 16.4552 22.9915 16.2587C22.8863 16.0623 23.2521 15.9232 23.3039 15.7449C23.3558 15.5666 23.1851 15.3732 23.1164 15.2418C23.0695 15.1463 23.0372 15.0444 23.0204 14.9395C23.0204 14.9395 23.5142 14.5814 23.7825 14.3547C24.0508 14.1281 23.9959 13.9422 23.9944 13.9014" fill="black"/>
</svg>
