<svg width="30" height="30" viewBox="0 0 30 30" fill="none" xmlns="http://www.w3.org/2000/svg">
<rect width="30" height="30" rx="6" fill="white"/>
<g clip-path="url(#clip0_1_2073)">
<path d="M21.9339 6C21.2672 6 20.6482 6.34564 20.299 6.91385L16.5364 12.5C16.4139 12.6841 16.4636 12.9323 16.6477 13.0549C16.797 13.1544 16.9944 13.1421 17.1303 13.0251L20.8339 9.81282C20.8954 9.75744 20.9903 9.76308 21.0457 9.82462C21.0708 9.85282 21.0841 9.88923 21.0841 9.92667V19.9841C21.0841 20.0672 21.017 20.1338 20.9339 20.1338C20.8893 20.1338 20.8472 20.1144 20.819 20.08L9.62363 6.67897C9.25952 6.24821 8.72414 6 8.16004 6H7.76875C6.70978 6 5.85132 6.85846 5.85132 7.91744V22.0826C5.85132 23.1415 6.70978 24 7.76875 24C8.43542 24 9.0544 23.6544 9.40363 23.0862L13.1662 17.5C13.2888 17.3159 13.239 17.0677 13.0549 16.9451C12.9057 16.8456 12.7082 16.8579 12.5723 16.9749L8.86875 20.1872C8.80722 20.2426 8.71234 20.2369 8.65696 20.1754C8.63183 20.1472 8.6185 20.1108 8.61901 20.0733V10.0138C8.61901 9.93077 8.68619 9.8641 8.76927 9.8641C8.81337 9.8641 8.85593 9.88359 8.88414 9.91795L20.078 23.3215C20.4426 23.7518 20.978 24 21.5416 24.0005H21.9329C22.9918 24.001 23.8508 23.1431 23.8518 22.0841V7.91744C23.8513 6.85846 22.9929 6 21.9339 6Z" fill="black"/>
</g>
<defs>
<clipPath id="clip0_1_2073">
<rect width="18" height="18" fill="white" transform="translate(6 6)"/>
</clipPath>
</defs>
</svg>
