<svg width="30" height="30" viewBox="0 0 30 30" fill="none" xmlns="http://www.w3.org/2000/svg">
<g clip-path="url(#clip0_1_2042)">
<rect width="30" height="30" rx="6" fill="white"/>
<g filter="url(#filter0_dd_1_2042)">
<path d="M8.84532 21.224C8.84597 21.224 8.84659 21.2242 8.84705 21.2247C8.85096 21.2285 8.85499 21.2323 8.85908 21.2361C8.87835 21.2541 8.91035 21.2511 8.92563 21.2299L9.52621 20.3954C10.0959 19.4232 10.2519 18.475 10.2579 17.6952C10.2579 17.2853 10.1901 16.8647 10.0825 16.4631C10.0072 16.2229 9.95159 15.975 9.91567 15.7251C9.91521 15.7219 9.91498 15.7194 9.91498 15.7162C9.91498 15.7129 9.91475 15.7089 9.9143 15.7057C9.89075 15.5396 9.87503 15.3697 9.86715 15.1998C9.75748 12.4352 11.9135 10.1531 14.7538 9.89302C15.3317 9.91055 16.3651 10.0655 17.2261 9.78579C18.0774 9.54988 18.8512 9.08418 19.4997 8.48837C19.5175 8.47203 19.5528 8.45475 19.584 8.43723C19.6308 8.41099 19.666 8.36295 19.7053 8.32713L20.0814 7.98372C20.1206 7.9479 20.1429 7.89818 20.1429 7.84618V7.6752C20.1429 7.61356 20.1117 7.55561 20.0589 7.52062C17.6489 5.9252 14.4947 5.49851 11.5977 6.6567C6.99613 8.49322 4.79105 13.6323 6.67116 18.1319C7.14169 19.2569 7.82154 20.2355 8.65095 21.0407C8.71452 21.1029 8.7781 21.163 8.84364 21.2233C8.84409 21.2237 8.8447 21.224 8.84532 21.224Z" fill="black"/>
<path d="M21.1683 8.64648C21.1676 8.64648 21.167 8.64622 21.1666 8.64578C21.1627 8.64195 21.1587 8.63812 21.1546 8.63428C21.1355 8.61621 21.1035 8.61919 21.0884 8.64046L20.4907 9.48207C19.9237 10.4626 19.7684 11.4188 19.7625 12.2053C19.7625 12.6187 19.8299 13.0428 19.9371 13.4479C20.0125 13.6917 20.068 13.9434 20.1037 14.197C20.1037 14.1989 20.1037 14.2029 20.1037 14.2068C20.1276 14.3759 20.1434 14.5489 20.1514 14.7219C20.2605 17.51 18.1148 19.8115 15.2881 20.0739C14.7129 20.0562 13.6845 19.8999 12.8276 20.182C11.9803 20.4199 11.2103 20.8896 10.5649 21.4904C10.5471 21.5071 10.5115 21.5246 10.4802 21.5425C10.434 21.5688 10.3996 21.6167 10.361 21.6525L9.98531 22C9.94665 22.0358 9.92481 22.0851 9.92481 22.1367V22.3121C9.92481 22.3734 9.95554 22.431 10.0078 22.466C12.4063 24.0754 15.5457 24.5059 18.4291 23.3377C23.0086 21.4856 25.2032 16.3027 23.3321 11.7648C22.8638 10.6303 22.1872 9.64332 21.3617 8.83126C21.2985 8.76858 21.2352 8.70791 21.17 8.64712C21.1695 8.64671 21.1689 8.64648 21.1683 8.64648Z" fill="black"/>
</g>
</g>
<defs>
<filter id="filter0_dd_1_2042" x="-1.43491" y="-0.319673" width="32.8698" height="32.8698" filterUnits="userSpaceOnUse" color-interpolation-filters="sRGB">
<feFlood flood-opacity="0" result="BackgroundImageFix"/>
<feColorMatrix in="SourceAlpha" type="matrix" values="0 0 0 0 0 0 0 0 0 0 0 0 0 0 0 0 0 0 127 0" result="hardAlpha"/>
<feOffset dy="1.11524"/>
<feGaussianBlur stdDeviation="3.71745"/>
<feComposite in2="hardAlpha" operator="out"/>
<feColorMatrix type="matrix" values="0 0 0 0 0.374137 0 0 0 0 0.374137 0 0 0 0 0.374137 0 0 0 0.15 0"/>
<feBlend mode="normal" in2="BackgroundImageFix" result="effect1_dropShadow_1_2042"/>
<feColorMatrix in="SourceAlpha" type="matrix" values="0 0 0 0 0 0 0 0 0 0 0 0 0 0 0 0 0 0 127 0" result="hardAlpha"/>
<feOffset dy="0.743491"/>
<feGaussianBlur stdDeviation="1.85873"/>
<feComposite in2="hardAlpha" operator="out"/>
<feColorMatrix type="matrix" values="0 0 0 0 0.233008 0 0 0 0 0.233008 0 0 0 0 0.233008 0 0 0 0.15 0"/>
<feBlend mode="normal" in2="effect1_dropShadow_1_2042" result="effect2_dropShadow_1_2042"/>
<feBlend mode="normal" in="SourceGraphic" in2="effect2_dropShadow_1_2042" result="shape"/>
</filter>
<clipPath id="clip0_1_2042">
<rect width="30" height="30" rx="6" fill="white"/>
</clipPath>
</defs>
</svg>
