<svg width="30" height="30" viewBox="0 0 30 30" fill="none" xmlns="http://www.w3.org/2000/svg">
<rect width="30" height="30" rx="6" fill="white"/>
<path d="M15 6C10.05 6 6 10.05 6 15C6 19.95 10.05 24 15 24C19.95 24 24 19.95 24 15C24 10.05 19.95 6 15 6ZM15 19.59V22.965C11.535 22.965 8.745 20.175 8.745 16.71C8.745 13.245 11.535 10.455 15 10.455V7.08C18.465 7.08 21.255 9.87 21.255 13.335C21.255 16.8 18.465 19.59 15 19.59Z" fill="black"/>
<path d="M15.0451 11.8953H15.0001C14.3251 13.2453 13.2901 14.2803 11.9401 14.9553C13.2901 15.6753 14.3251 16.7103 15.0001 18.1053H15.0451C15.7201 16.7553 16.7551 15.7203 18.1051 15.0453C16.7551 14.3253 15.7201 13.2903 15.0451 11.8953Z" fill="black"/>
</svg>
