<svg width="30" height="30" viewBox="0 0 30 30" fill="none" xmlns="http://www.w3.org/2000/svg">
<rect width="30" height="30" rx="6" fill="white"/>
<path fill-rule="evenodd" clip-rule="evenodd" d="M14.977 24C17.6507 24 20.0527 22.8402 21.705 20.9972C20.9364 20.3309 19.7781 20.2904 18.9599 20.949L18.8036 21.0748C17.3054 22.2806 15.1224 22.1025 13.8406 20.6699C13.1415 19.8886 11.9441 19.8089 11.147 20.4905L9.34476 22.0317C10.8884 23.2635 12.8465 24 14.977 24ZM17.9025 19.6419C19.3295 18.4934 21.3352 18.5346 22.7077 19.6439C23.528 18.2881 24 16.699 24 15C24 13.1121 23.4173 11.36 22.4213 9.91285C21.7793 9.77647 21.0835 9.93575 20.5552 10.4027L20.4049 10.5356C18.9641 11.8091 16.7752 11.7317 15.4284 10.3596C14.6939 9.61133 13.4942 9.58675 12.7295 10.3044L10.6321 12.2725L9.47836 11.0492L11.5757 9.08109C13.0082 7.73684 15.2556 7.78287 16.6316 9.18464C17.3505 9.91709 18.519 9.9584 19.2881 9.27855L19.4385 9.14567C19.9054 8.733 20.4455 8.45478 21.0111 8.30847C19.4125 6.87337 17.297 6 14.977 6C10.3967 6 6.61343 9.40431 6.03169 13.8146C7.42294 13.1487 9.13902 13.405 10.2734 14.5637C10.9895 15.2951 12.1426 15.3723 12.9503 14.7429L14.123 13.8291C15.5967 12.6807 17.6801 12.7362 19.0901 13.9617L21.3732 15.9457L20.2671 17.212L17.9841 15.228C17.1822 14.5312 15.9976 14.4996 15.1596 15.1526L13.9869 16.0664C12.5029 17.2228 10.3844 17.081 9.0687 15.7371C8.30362 14.9556 7.05233 14.9283 6.25376 15.6757L6 15.9132C6.18991 17.793 6.95973 19.502 8.12831 20.8597L10.0511 19.2154C11.5443 17.9386 13.7872 18.088 15.0968 19.5516C15.7811 20.3163 16.9464 20.4114 17.7462 19.7677L17.9025 19.6419Z" fill="url(#paint0_linear_1_2030)"/>
<defs>
<linearGradient id="paint0_linear_1_2030" x1="14.9849" y1="23.9241" x2="14.9849" y2="6" gradientUnits="userSpaceOnUse">
<stop stop-color="#1F1F1F"/>
<stop offset="1"/>
</linearGradient>
</defs>
</svg>
