<svg width="30" height="30" viewBox="0 0 30 30" fill="none" xmlns="http://www.w3.org/2000/svg">
<rect width="30" height="30" rx="6" fill="white"/>
<path fill-rule="evenodd" clip-rule="evenodd" d="M9.58491 18.938C9.63809 18.8789 9.7029 18.8316 9.77518 18.7992C9.84746 18.7669 9.92564 18.7501 10.0047 18.75L22.965 18.7611C23.0061 18.7614 23.0466 18.7707 23.0839 18.7882C23.1211 18.8058 23.1542 18.8313 23.1808 18.8629C23.2074 18.8945 23.2269 18.9316 23.2381 18.9715C23.2493 19.0115 23.2518 19.0534 23.2454 19.0944C23.2367 19.1497 23.2122 19.2012 23.1749 19.2426L20.4151 22.312C20.3618 22.3713 20.2968 22.4186 20.2244 22.4509C20.1519 22.4833 20.0736 22.5 19.9944 22.5L7.03502 22.4907C6.97992 22.4905 6.92607 22.4741 6.87998 22.4436C6.83389 22.4131 6.79755 22.3698 6.77534 22.3188C6.75313 22.2679 6.74602 22.2115 6.75485 22.1566C6.76369 22.1017 6.7881 22.0505 6.82513 22.0093L9.58491 18.938ZM23.1749 16.3824C23.2124 16.4235 23.2372 16.4748 23.2462 16.53C23.2552 16.5852 23.2481 16.6418 23.2257 16.693C23.2033 16.7441 23.1666 16.7875 23.1201 16.8179C23.0737 16.8483 23.0194 16.8642 22.9641 16.8639L10.0056 16.875C9.9264 16.875 9.84805 16.8583 9.7756 16.8259C9.70315 16.7936 9.6382 16.7463 9.58491 16.687L6.82604 13.6157C6.78865 13.5747 6.7639 13.5236 6.7548 13.4686C6.74571 13.4136 6.75267 13.3571 6.77483 13.306C6.797 13.255 6.83341 13.2115 6.87962 13.181C6.92582 13.1505 6.97982 13.1343 7.03502 13.1343L19.9953 13.1231C20.0744 13.1233 20.1525 13.14 20.2248 13.1724C20.2971 13.2048 20.3619 13.252 20.4151 13.3111L23.1749 16.3824ZM9.58491 7.68796C9.63809 7.62885 9.7029 7.58161 9.77518 7.54924C9.84746 7.51688 9.92564 7.50011 10.0047 7.5L22.965 7.51019C23.0201 7.51042 23.0739 7.52678 23.12 7.55729C23.1661 7.5878 23.2024 7.63114 23.2247 7.68209C23.2469 7.73303 23.254 7.78938 23.2451 7.84432C23.2363 7.89927 23.2119 7.95045 23.1749 7.99167L20.4151 11.062C20.3618 11.1213 20.2968 11.1686 20.2244 11.2009C20.1519 11.2333 20.0736 11.25 19.9944 11.25L7.03502 11.2389C6.97975 11.2391 6.92562 11.2229 6.87927 11.1925C6.83293 11.1621 6.79638 11.1186 6.7741 11.0675C6.75182 11.0164 6.74478 10.9599 6.75385 10.9048C6.76291 10.8497 6.78768 10.7985 6.82513 10.7574L9.58491 7.68796Z" fill="black"/>
</svg>
