<svg width="30" height="30" viewBox="0 0 30 30" fill="none" xmlns="http://www.w3.org/2000/svg">
<rect width="30" height="30" rx="6" fill="white"/>
<path d="M14.4526 9.83095C14.5806 9.48135 14.9301 9.27575 15.2497 9.46175C15.5394 9.63565 15.6188 10.0124 15.6581 10.3293C15.7757 11.5945 15.7991 12.8983 15.824 14.1751C16.4952 14.1897 17.1854 14.2091 17.8428 14.2289C18.5747 14.2756 19.3356 14.2551 20.0553 14.4167C20.877 14.6512 20.7387 15.4866 19.932 15.6193C18.8495 15.7771 17.939 15.7641 16.8126 15.8043C16.48 15.8128 16.1515 15.8221 15.8247 15.8294C15.8101 16.4989 15.7909 17.1872 15.7711 17.8429C15.7244 18.5747 15.7449 19.3356 15.5833 20.0554C15.3488 20.8771 14.5134 20.7388 14.3807 19.932C14.2228 18.8496 14.2358 17.9391 14.1957 16.8127C14.1873 16.4821 14.1779 16.1554 14.1706 15.8306C14.1092 15.8286 14.0476 15.8264 13.9859 15.824C13.2232 15.8034 12.496 15.7931 11.7379 15.7576C11.1078 15.7044 10.4376 15.7455 9.83098 15.5473C9.48138 15.4193 9.27578 15.0699 9.46168 14.7503C9.63558 14.4606 10.0123 14.3812 10.3292 14.3419C11.5925 14.2245 12.8943 14.2009 14.1692 14.1761C14.1712 14.1128 14.1734 14.0495 14.176 13.986C14.1966 13.2233 14.2069 12.496 14.2424 11.7379C14.2956 11.1079 14.2546 10.4377 14.4526 9.83095ZM10.8956 11.0872C11.5453 11.0563 12.1958 11.0302 12.1958 11.6451C12.1958 12.2039 11.5602 12.2974 11.5602 12.2974C10.2554 12.4843 8.10713 12.8572 6.99333 13.3226C5.3185 14.0225 5.18051 14.7187 5.18051 15C5.18051 15.2813 5.3185 15.9776 6.99333 16.6775C8.10713 17.1429 10.2554 17.5168 11.5602 17.7027C11.5602 17.7027 12.1958 17.7961 12.1958 18.355C12.1958 18.9699 11.5443 18.9437 10.8956 18.9129C6.99235 18.7279 3.78347 17.1195 3.78345 14.9767C3.78345 12.8339 6.99235 11.2741 10.8956 11.0872ZM17.8041 11.6451C17.8041 11.0302 18.4546 11.0563 19.1043 11.0872C23.0076 11.2722 26.2165 12.8319 26.2165 14.9747V14.9767C26.2165 17.1195 23.0076 18.7279 19.1043 18.9129C18.4556 18.9437 17.8041 18.9699 17.8041 18.355C17.8041 17.7961 18.4397 17.7027 18.4397 17.7027C19.7445 17.5168 21.8928 17.1429 23.0066 16.6775C24.6814 15.9776 24.8194 15.2813 24.8194 15C24.8194 14.7187 24.6814 14.0225 23.0066 13.3226C21.8928 12.8572 19.7445 12.4843 18.4397 12.2974C18.4397 12.2974 17.8041 12.2039 17.8041 11.6451Z" fill="black"/>
</svg>
