<svg width="30" height="30" viewBox="0 0 30 30" fill="none" xmlns="http://www.w3.org/2000/svg">
<rect width="30" height="30" rx="6" fill="white"/>
<g clip-path="url(#clip0_1_2025)">
<path d="M15.0021 7.2866C16.0289 7.2866 17.0227 7.48866 17.9629 7.88454C18.4619 8.09485 18.9402 8.36289 19.3856 8.67629L19.2908 8.72577L18.0701 9.34845C17.1382 8.82887 16.0784 8.5567 15.0021 8.5567C14.9856 8.5567 14.9691 8.5567 14.9526 8.5567C14.1237 8.56495 13.3155 8.7299 12.5526 9.04742C11.7897 9.36907 11.1052 9.8268 10.5196 10.4124C9.32374 11.6124 8.66395 13.2041 8.66395 14.8948C8.66395 15.1711 8.68044 15.4474 8.71756 15.7237L8.72993 15.8103L8.80828 15.7691L19.3444 10.3959L21.5258 9.28247L23.9959 8.02062V9.44742L21.4516 10.7464L20.2021 11.3814L9.09694 17.0515L9.04745 17.0804L8.47838 17.3691L7.90106 17.6619V17.6577L7.84745 17.6825L6.00003 18.6268V17.2L6.62683 16.8825C7.15055 16.6144 7.46395 16.0619 7.41859 15.4722C7.40622 15.2784 7.39797 15.0845 7.39797 14.8907C7.39797 13.8639 7.60003 12.866 7.99591 11.9258C8.37941 11.0186 8.92787 10.2062 9.62477 9.50516C10.3217 8.80825 11.1341 8.25567 12.0413 7.87217C12.9774 7.48866 13.9753 7.2866 15.0021 7.2866Z" fill="#0F0F0F"/>
<path d="M24 11.3568V12.7836L23.3732 13.1012C22.8495 13.3692 22.5361 13.9218 22.5815 14.5115C22.598 14.7053 22.6021 14.9032 22.6021 15.097C22.6021 16.1238 22.4 17.1218 22.0042 18.062C21.6207 18.9692 21.0722 19.7816 20.3753 20.4826C19.6784 21.1836 18.8619 21.7321 17.9588 22.1156C17.0227 22.5115 16.0248 22.7135 14.998 22.7135C13.9712 22.7135 12.9774 22.5115 12.0371 22.1156C11.5341 21.9012 11.0557 21.6331 10.6103 21.3197L11.8722 20.6764L11.9217 20.6517C12.8536 21.1713 13.9176 21.4476 14.998 21.4476C15.0145 21.4476 15.0268 21.4476 15.0433 21.4476C15.8722 21.4434 16.6804 21.2785 17.4433 20.9568C18.2062 20.6352 18.8908 20.1774 19.4763 19.5919C20.6722 18.396 21.332 16.8001 21.332 15.1094C21.332 14.8331 21.3155 14.5527 21.2784 14.2764L21.266 14.1898L21.1877 14.2311L10.6433 19.596L8.46189 20.7094L6.00003 21.963V20.5362L8.53611 19.2414L9.7856 18.6063L24 11.3568Z" fill="#0F0F0F"/>
</g>
<defs>
<clipPath id="clip0_1_2025">
<rect width="18" height="18" fill="white" transform="translate(6 6)"/>
</clipPath>
</defs>
</svg>
